# xmcd CD database file generated by Grip 2.96
# 
# Track frame offsets:
#       150
#       17788
#       29149
#       46854
#       57679
#       76553
#       91476
#       105529
#       124860
#       145167
#       156864
#       171569
# 
# Disc length: 2480 seconds
# 
# Revision: 0
# Processed by: cddbd v1.4PL0 Copyright (c) Steve Scherf et al.
# Submitted via: Grip 2.96
# 
DISCID=a109ae0c
DTITLE=Two Dollar Pistols - You Ruined Everything
DYEAR=1900
DGENRE=
TTITLE0=You Ruined Everything
TTITLE1=There Goes a Heartache
TTITLE2=All the Good's Gone
TTITLE3=Other Side
TTITLE4=I Will
TTITLE5=Gettin' Gone
TTITLE6=That Someone Isn't Me
TTITLE7=I Can See It in Your Eyes
TTITLE8=All I Can Think of Is You
TTITLE9=Where Was Love (When You Needed Me)
TTITLE10=In My Mind
TTITLE11=You've Grown Tired of Me
EXTD=
EXTT0=
EXTT1=
EXTT2=
EXTT3=
EXTT4=
EXTT5=
EXTT6=
EXTT7=
EXTT8=
EXTT9=
EXTT10=
EXTT11=
PLAYORDER=
